<?xml version="1.0" encoding="utf-8"?>
<!-- Generator: Adobe Illustrator 24.3.0, SVG Export Plug-In . SVG Version: 6.00 Build 0)  -->
<svg version="1.1" xmlns="http://www.w3.org/2000/svg" xmlns:xlink="http://www.w3.org/1999/xlink" x="0px" y="0px"
	 viewBox="0 0 586.4 867.1" style="enable-background:new 0 0 586.4 867.1;" xml:space="preserve">
<style type="text/css">
	.st0{display:none;}
	.st1{fill:#FFC700;}
</style>
<g id="Слой_1" class="st0">
	
		<image style="display:inline;overflow:visible;" width="2412" height="3587" xlink:href="ИТОГ-2.png"  transform="matrix(0.24 0 0 0.24 3.9362 2.6809)">
	</image>
</g>
<g id="Слой_1__x28_копия_x29_" class="st0">
	
		<image style="display:inline;overflow:visible;" width="2412" height="3587" xlink:href="ИТОГ-2.png"  transform="matrix(0.24 0 0 0.24 3.9362 2.6809)">
	</image>
</g>
<g id="Слой_3">
	<g>
		<path class="st1" d="M331.3,3.5c3.8,0,23.5,0.9,23.5,19.1v18.7c0,0-0.7,7.1,6.6,7.1c7.2,0,203.7,0,203.7,0s0.7-0.1,1.9-0.1
			c4.6,0,15.8,1.6,15.8,16.7c0,19.1,0,784.4,0,784.4s0.5,14.2-17,14.2s-548.5,0-548.5,0s-13.4-1.3-13.4-14.9s0-782.4,0-782.4
			S2.7,48.5,23.2,48.5c22.7,0,201.6-0.2,201.6-0.2s0,0,0,0c0.1,0,6-0.1,5.2-11.2c-0.5-6,0-15.5,0-15.5s-0.8-18.2,23.7-18.2
			c24.5,0,76.9,0,76.9,0S330.9,3.5,331.3,3.5 M331.3,0.5c-0.3,0-0.6,0-0.7,0h-76.9c-9.4,0-16.5,2.5-21.2,7.4
			c-5.4,5.6-5.5,12.5-5.5,13.7c-0.1,1.1-0.4,9.9,0,15.7c0.5,6-1.3,7.8-2.3,7.9c-4.8,0-179.3,0.2-201.6,0.2c-7.4,0-13.2,2.1-17.1,6.4
			c-5.4,5.8-5.2,13.4-5.2,14.5v782.3c0,13,10.6,17.4,16.1,17.9l0.1,0h0.1h548.5c6.6,0,11.8-1.9,15.3-5.5c4.6-4.8,4.6-10.9,4.6-11.7
			V64.9c0-18.3-14.4-19.7-18.8-19.7c-1,0-1.8,0.1-2.1,0.1H361.4c-1.3,0-2.2-0.3-2.7-0.9c-0.9-1-0.8-2.9-0.8-2.9l0-0.1v-0.1V22.6
			C357.8,6.2,343.5,0.5,331.3,0.5L331.3,0.5z"/>
	</g>
</g>
</svg>
