<?xml version="1.0" encoding="utf-8"?>
<!-- Generator: Adobe Illustrator 24.3.0, SVG Export Plug-In . SVG Version: 6.00 Build 0)  -->
<svg version="1.1" xmlns="http://www.w3.org/2000/svg" xmlns:xlink="http://www.w3.org/1999/xlink" x="0px" y="0px"
	 viewBox="0 0 1285.9 687.6" style="enable-background:new 0 0 1285.9 687.6;" xml:space="preserve">
<style type="text/css">
	.st0{fill:#858585;}
</style>
<g id="Слой_1">
	<g>
		<path d="M20.2,687.6c-0.8,0-1.6,0-2.4,0c-0.8-0.2-1.7-0.4-2.5-0.6c-1.1-0.4-2.6-0.5-3.3-1.3c-1.9-2.2-3.6-4.7-5.2-7.1
			c-0.4-0.6-0.4-1.5-0.5-2.3c-0.1-0.6-0.1-1.2-0.2-1.8c-2.1-0.7-2.2-0.7-2.6-2.5c-0.1-0.6-0.2-1.3-0.2-1.9c0-3.4,0-6.9,0-10.3
			c0-1.8,0.1-3.6,0.2-5.7c-2.5-1.9-2.4-4.8-2-7.8c0.3-2,0.5-4.1,0.6-6.2c0.1-2.5-0.1-5,0.1-7.4c0.2-2.7,0.5-5.4,0.9-8.1
			c0.2-1.3,0.8-2.5,1.3-3.9c-2-0.2-2.4-1.4-2.4-3.1c0.1-5.3,0-10.6,0.2-15.8c0.1-2.1,0.5-4.3,1.2-6.3c0.6-1.9,1.6-3.6,0.6-5.8
			c-0.6-1.4-0.3-3.2-0.6-4.7c-1.2-7.6-1.7-15.1,1.6-22.5c-1.6-1.1-1.9-2.7-1.9-4.5c0.3-6.3-0.5-12.6,1.6-18.8
			c0.3-0.7,0.4-1.7,0.1-2.3c-1.5-3-1.7-6.2-1.2-9.4c0.8-5.5,0.2-11.2,2-16.1c-0.7-1.3-1.5-2.2-1.6-3.2c-0.3-2.5-0.4-5.1-0.4-7.6
			c-0.1-4.5-0.1-8.9,0-13.4c0-1.3,0.4-2.7,0.7-4c0.2-0.8,0.5-1.7,0.9-2.7c-1.8-0.4-1.9-1.7-1.8-3.1c0.2-2.4,0.4-4.8,0.5-7.2
			c0.1-3.2,0-6.4,0-9.6c0-2.1-0.3-4.2-0.2-6.2c0.1-1.9,0.6-3.7-0.5-5.5c-0.3-0.5-0.2-1.3-0.2-1.9c0.1-2.6,0.2-5.1,0.4-7.7
			c0.1-3,0.3-6.1,0.5-9.1c0.2-3.1,0.6-6.2-0.5-9.2c-0.1-0.2,0-0.5,0-0.7c0-3-0.1-5.9-0.1-8.9c0-1.7,0.2-3.4,0-5
			c-0.3-3.4-0.6-6.7,1.3-9.9c-1.1-1.2-1.5-2.4-1.4-4c0.3-5.2,0.6-10.4,0.9-15.5c0.1-1,0-1.9,0.2-2.9c0.3-2.1,1.1-4.2-0.1-6.3
			c-0.2-5.7-0.7-11.5,0.3-17.2c0.6-3.6,1.2-7.2,1.9-11c-2-0.8-2.7-2.6-2.7-4.9c0-3-0.3-6.1-0.5-9.1c-0.2-4.2-0.2-8.3,2.1-12.2
			c-2.7-1.5-2.7-3.7-2-6.3c0.3-1,0.5-2,0.5-3.1c0.1-3.4,0-6.7,0.1-10.1c0-1.7,0.1-3.5,0.5-5.2c0.5-2.5,1.3-4.9,2-7.5
			c-1.5-0.7-1.3-2.1-1.2-3.5c0.2-4.4,0.3-8.7-0.3-13.1c-0.7-4.8,0-9.5,1.9-14.1c-1.6-1.1-2-2.6-2.1-4.4C4.3,241,4,235.9,4,230.8
			c0-2.7-0.1-5.5,1.7-7.9c-2-1.8-2.1-4.1-1.6-6.3c0.6-2.9,0.3-5.7,0.1-8.6c-0.3-3.2-0.2-6.4,0.9-9.5c0.5-1.5,1-3,1.6-4.6
			c-1.8-0.7-2-2.2-2-3.7c-0.1-2.4-0.4-4.8-0.4-7.2c0-4,0-8,0.3-12c0.2-2.1,1.2-4.1,1.8-6.3c-0.9-0.8-1.4-1.8-1.4-3.2
			c0-4.3-0.2-8.6-0.3-12.9c0-4.4,0-8.8,2.2-12.8c0.4-0.7,0.3-1.3,0-2c-0.8-2.1-1.8-4.1-1.9-6.4c-0.4-7.5-0.3-14.9,2.1-22.1
			c-1.5-1.5-1.7-3.3-1.4-5.3c0.2-1.1,0.2-2.2,0.2-3.3C5.9,91,5.8,85.4,7.3,80c0.1-0.3,0.1-0.7,0-0.9c-1.6-2.4-1.4-5.2-1.4-7.9
			C5.8,66.1,6,61.1,8,56.3c0.2-0.5,0.3-1.1,0.2-1.6c-1-4.8-0.4-9.7-0.3-14.6c0-2.1,0.3-4.3,1.5-6.2c0.3-0.5,0.4-1.3,0.2-1.8
			c-0.9-2.2-0.7-4.5-0.6-6.9c0.3-4,0.6-8,0.7-11.9c0-2.7,1-4,3.8-4c1.1,0,2.2,0,3.3,0c0.1-2.8,0.3-3,2.8-3.9c4.3-1.6,8.7-2.9,13.3-2
			C34,3.5,35,3.9,36,4.3c1.3,0.6,2.5,1.3,3.2,1.6c1.8-0.9,3-1.8,4.3-2.1c3.3-0.7,6.7-1.3,10.1-1.7c6-0.7,11.9-1.3,17.8,0.6
			c0.4,0.1,1,0.1,1.3-0.1c1.6-1.3,3.5-1.1,5.3-1c4.4,0.1,8.8,0.2,13.2,0.5c2.2,0.1,4.4,0.6,6.6,1.1c1.3,0.4,2.5,0.9,3.8,0
			c0.5-0.3,1.2-0.3,1.9-0.3c4.8,0,9.6,0.1,14.4,0.1c1.1,0,2.3,0.1,3.3-0.1c2.4-0.5,4.7-0.2,7.1,0.6c0.5,0.2,1.4,0.3,1.8,0
			c1.7-1.3,3.5-1,5.2-0.2c3.3,1.5,6.7,1.3,10.1,0.6c4-0.8,8.1-1.3,11.8,1c1.4-1.8,3.2-2.2,5.2-2.1c1.2,0.1,2.4,0.3,3.5,0.5
			c2.3,0.5,4.5,0.7,6.9,0.2c4.2-0.8,8.4-0.8,12.6,0.1c0.5,0.1,1.1,0,1.6-0.2c1.7-1,3.5-1,5.4-0.8c2.2,0.2,4.4,0.6,6.6,1.1
			c2.8,0.6,5.7,0.9,8.6,0.7c2.1-0.1,4.1,0.1,6.2,0.1c1.2,0,2.4-0.1,3.5-0.1c2.5-0.2,4.9-0.4,7.4-0.6c1.8-0.1,3.5,0.1,5.3-0.1
			c3.9-0.3,7.8-0.9,11.7-1c1.6-0.1,3.3,0.6,4.9,0.9c0.6,0.1,1.2,0.4,1.8,0.5c1.3,0,2.7-0.1,4-0.1c1,0,1.9,0.1,2.8-0.1
			c4.2-1.1,8.5-1.6,12.8-1.4c0.9,0,1.7-0.2,2.6-0.2c3.6,0,7.2-0.4,10.7,1.2c1.7-1.2,3.7-1.3,5.9-1.1c2.1,0.2,4.3,0.1,6.5,0
			c3-0.1,5.9-0.3,8.9-0.2c2.9,0.1,5.8,0.4,8.3,2c1.3,0.9,2.6,1,4.1,0.6c3.5-1,7.2-1.6,10.7-0.7c4.4,1.1,8.7,0.6,13.1,0.8
			c0.3,0,0.6,0.1,1,0.1c0.3,0,0.7,0,0.9-0.2c1.4-1.4,3.3-1.1,5-1.2c2.1-0.2,4.2,0,6.2-0.1c2.8-0.1,5.6-0.3,8.3-0.4
			c1,0,1.9-0.2,2.9,0c1.5,0.3,2.8,1.1,4.3,1.2c1.5,0.1,3.1-0.4,4.7-0.4c4.3,0,8.6,0.3,12.9,0.2c2.6,0,5.3-0.1,7.8,0.6
			c0.5,0.1,1.3,0.2,1.5-0.1c1.1-1.1,2.5-1,3.8-1c4.7-0.2,9.4-0.3,14.1-0.6c3-0.2,5.9-0.4,8.8,0.7c0.5,0.2,1.3,0.1,1.7-0.2
			c1.5-1,3.2-1.1,4.8-1.1c4.7,0,9.4-0.1,14.1,0.2c4,0.3,8.2,0.2,12,1.7c0.3,0.1,0.7,0.3,0.9,0.1c2.3-1.5,4.8-0.5,7.2-0.5
			c4.6,0,9.1,0.3,13.7,0.2c4-0.1,8-0.1,11.9,1.7c1.3-2.3,3.5-3,5.9-3c2.2,0,4.5,0.1,6.6,0.5c2.5,0.4,4.9,0.6,7.4,0.3
			c2.5-0.2,5.1-0.6,7.6,0.4c0.3,0.1,0.6,0.2,0.9,0.1c3.2-1.1,6.5-0.7,9.7-0.7c2.3,0,4.6-0.2,6.9-0.6c3.2-0.6,6.3-0.6,9.4,0.8
			c0.5,0.2,1.2,0.2,1.8,0C550,2.1,556.5,1,563.1,1c2.6,0,5.3,0,7.8,1c0.6,0.2,1.2,0.2,1.9,0.2c1.2,0,2.4-0.2,3.6-0.1
			c4.5,0.3,8.9,0.8,13.4,0.9c3.3,0.1,6.5-0.3,9,0.7c2.2-0.7,3.7-1.5,5.3-1.7c2.4-0.4,4.9-0.8,7.4-0.6c2.8,0.2,5.6,0.7,8.2,1.5
			c1.8,0.5,3.3,1.9,4.9,2.9c0.9-1.6,2.5-2,4.2-2.1c3.4-0.1,6.7,0.1,10,0.8c2,0.4,3.9,0.7,5.1,2.6c1.1-0.6,2-1.2,3-1.8
			c3.3-1.8,6.9-1.7,10.5-1.6c2,0,3.8,0.4,4.9,2.2c4.2-3.1,4.4-3.3,8.4-3.9c5.8-1,11.6-0.7,16.8,1.8c2-0.2,3.9-0.6,5.8-0.7
			c3.6-0.2,7.2,0,10.8-0.4c4.9-0.6,9.9,0.3,14.7-1.3c0.9-0.3,1.9-0.2,2.9-0.2c3.1,0.1,6.3,0.1,9.3,0.5c4,0.5,8,1.4,12,2.2
			c0.7,0.1,1.4,0.2,2-0.1c2.9-1.2,5.9-1.5,8.9-0.7c2.7,0.7,5.4,0.8,8.1,0.6c3-0.2,5.9-0.2,8.8,0.7c0.3,0.1,0.6,0.1,0.9,0
			c2.6-1,5.4-0.5,8.1-0.4c2.1,0.1,4.3-0.1,6.4-0.3c1.3-0.1,2.7-0.5,4-0.6c3.5-0.2,6.9-0.2,9.2,3.1c3.6-1.8,7.4-1.8,11.1-1.7
			c2.1,0.1,4.2,0.2,6.2,0.1c3.9-0.1,7.8-0.4,11.7-0.6c0.8,0,1.7-0.2,2.3,0.2c1.1,0.7,2.1,0.4,3.1,0.1c1.1-0.4,2.2-0.7,3.3-0.8
			c4.3-0.3,8.6-0.5,12.9-0.7c2.8-0.1,5.6-0.1,8.4-0.1c1.9,0,3.8,0,5.5,1.2c0.4,0.3,1.2,0.2,1.8,0c2.5-0.9,5-1.1,7.6-0.7
			c5.1,0.8,10.2,0.7,15.3,0.6c1.6,0,3,0.2,3.8,1.1c2.9-0.2,5.4-0.5,7.9-0.6c4.8-0.1,9.6-0.2,14.4-0.2c1.3,0,2.7,0.2,4,0.3
			c0.7,0,1.5,0.1,2-0.2c1.9-1.1,4-1,6.1-0.8c2.1,0.2,4.3,0.4,6.4,0.4c2.6,0.1,5.1-0.1,7.7,0c1.4,0.1,3,0,4.2,0.7
			c1.2,0.7,2.2,0.7,3.4,0.7c1.8,0,3.7,0.1,5.5,0.1c1,0,2,0.1,2.9-0.2c5.1-1.4,10.1-1.4,15.2,0c1.4,0.4,2.4,0.1,3.6-0.6
			c1.5-0.7,3.1-1.4,4.7-1.7c4.1-0.7,8.3-0.7,12.4-0.3c2.1,0.2,4.2,0.3,6.2,0.1c2.3-0.3,4.4-0.2,5.9,0.7c2.3-0.3,4-0.8,5.7-0.8
			c4.1-0.1,8.1,0,12.2,0.1c1.3,0,2.5,0.2,3.8,0.4c3.3,0.5,6.5,1.7,9.9,0.9c0.4-0.1,0.9-0.1,1.2,0.1c0.8,0.5,1.5,0,2.3-0.2
			c1.7-0.5,3.4-1,5.1-1c3.3,0.1,6.5,0.5,9.8,0.8c1.9,0.1,3.8,0.3,5.7,0.3c3.2,0,6.4,0.1,9.5,0.9c0.6,0.2,1.3,0.1,1.9,0.1
			c2.3-0.1,4.6-0.4,6.9-0.3c2.8,0.2,5.6-0.2,8.3-0.7c2.3-0.4,4.6-0.8,6.9-1.1c1.7-0.2,3.6-0.3,5.2,0.6c0.9,0.5,1.6,0.4,2.5,0.3
			c3.4-0.5,6.8-0.8,10.3-0.2c3.3,0.6,6.5,0.7,9.7-0.3c0.8-0.3,1.7-0.3,2.6-0.3c2-0.1,3.8,0.2,5,2.3c2.2-1.6,4.7-2,7.3-1.8
			c1.3,0.1,2.7,0.3,4,0.6c3.6,0.7,7.1,1,10.6-0.6c2-0.9,4-1,5.8,0.7c2.9-1.3,5.9-1.6,8.9-1c0.5,0.1,1,0.1,1.4,0.1
			c5,0,10.1-0.1,15.1-0.1c0.6,0,1.4-0.2,1.9,0.1c1.8,1.2,3.5,0.4,5.2-0.2c0.6-0.2,1.2-0.4,1.9-0.4c6.5-0.3,12.9-0.6,19.4-0.9
			c0.8,0,1.8,0.3,2.4,0.8c0.8,0.5,1.4,0.5,2.2,0.2c2.7-0.8,5.5-1.3,8.3-1.1c5.6,0.5,11.1,0.9,16.7,1.6c2.2,0.3,4.6,0.6,6.2,3
			c1.3-0.6,2.5-1.3,3.8-1.9c1-0.4,2.1-0.8,3.1-1c4.6-0.9,8.9,0.2,13.1,1.9c0.9,0.4,2,0.8,2.6,1.5c0.5,0.5,0.4,1.6,0.6,2.5
			c1.2,0,2.4-0.1,3.6,0c2.5,0.2,3.7,1.7,3.4,4.2c-0.1,1.1-0.2,2.2-0.1,3.3c0.3,4,1,8,0.7,11.9c-0.2,3-0.6,5.7,0.9,8.4
			c0.2,4.5,0.6,8.9,0.4,13.4c-0.1,3-0.2,5.9,0.7,8.9c0.9,2.7,1.1,5.7,1.2,8.5c0.1,3.7,0.4,7.5-1.4,11c-0.2,0.3,0,0.9,0.1,1.4
			c0.4,2.9,0.9,5.8,1.1,8.8c0.3,3.6,0.2,7.2,0.4,10.8c0.1,2.1,0.1,4-1.2,5.2c0.5,2.9,1.2,5.5,1.5,8.1c0.9,6.9,1.6,13.8-1.5,20.5
			c-0.4,0.9-0.2,1.6,0.2,2.5c0.6,1.4,1.2,2.8,1.4,4.3c0.3,3.4,0.5,6.8,0.5,10.3c0,3.3-0.4,6.6-0.2,9.8c0.1,1.8,0.1,3.3-1.6,4.5
			c2.1,3.5,2.6,7.2,2.5,11c-0.1,4.7-0.4,9.4-0.5,14.1c0,1.7-0.3,3.2-2.1,4c2.3,4.8,2.9,9.7,2.5,14.8c-0.2,2.8,0,5.6,0.3,8.4
			c0.2,2.1-0.2,4-1.5,5.5c0.4,1.5,1.1,2.9,1.2,4.3c0.3,6.1,0.7,12.1,0,18.2c-0.2,2.1-0.2,4.2-2.2,5.4c2,5.4,2.6,10.7,1.7,16.2
			c-0.4,2.4-0.3,4.9-0.3,7.4c0,1.1,0.2,2.2,0.2,3.3c0.1,1.5,0.1,3.1-1.4,4c2.3,5,2.7,10,2.5,15.2c-0.1,3.6,0.4,7.2,0.8,10.7
			c0.3,2.4,0.4,4.6-2.2,6c2,3.5,2.3,7.1,2.2,10.8c-0.2,3.9-0.5,7.8-0.7,11.7c-0.1,1.4-0.6,2.4-1.9,3.1c-0.3,0.2-0.6,0.5-0.9,0.7
			c0.4,1.6,0.8,3,1.1,4.5c1.2,6.5,1.9,13,1.4,19.6c-0.2,2.1-0.8,4.2-0.8,6.4c0,2.2,0.7,4.4,0.8,6.6c0.3,5.3,0.6,10.5,0.7,15.8
			c0,0.9-0.1,2-0.6,2.7c-0.6,0.9-0.5,1.5-0.1,2.4c1.1,2.4,1.2,4.9,0.8,7.5c-0.1,0.8-0.2,1.6-0.2,2.4c0,4,0,8,0,12
			c0,0.8,0,1.6-0.2,2.4c-0.7,1.9-0.8,3.9-0.3,5.8c0.1,0.3,0,0.6,0,1c0.3,5.7,0.6,11.5,0.8,17.2c0,1.3-0.4,2.6-0.6,4
			c-0.1,0.7-0.2,1.4-0.2,2c0,3.1-0.1,6.2-0.1,9.3c0,2.2-0.2,4.3-0.1,6.5c0.1,3,0.4,6.1,0.7,9.1c0.1,1.6,0,3-1.8,3.6
			c0.2,0.7,0.4,1.2,0.6,1.8c0.9,2.4,1.4,4.7,0.9,7.3c-0.1,0.6-0.1,1.3-0.1,1.9c0.6,4.9,0.1,9.7-0.1,14.6c-0.1,2-0.2,3.8-2.1,4.8
			c0.4,1.3,0.9,2.5,1.1,3.6c0.5,5.2,1,10.3,1.3,15.5c0.1,1.7,0,3.7-0.7,5.2c-1,2.1-0.6,3.8,0,5.7c0.5,1.8,0.9,3.6,1,5.4
			c0.2,3.5,0.1,7,0.1,10.6c0,2.1,0,4.2-1.4,5.4c0.7,3.1,1.4,5.8,1.8,8.5c0.8,5,0,9.9-0.7,14.8c-0.2,1.7-0.2,3.6-0.7,5.2
			c-0.4,1-0.4,1.8,0.1,2.7c1.4,2.8,1.9,5.7,1.9,8.8c0,4.9,0.1,9.8,0.2,14.6c0.1,2.5,0,2.9-2.5,4.1c2.3,4.3,2.2,8.9,2.2,13.5
			c0,2.3-0.1,4.6,0,7c0,1.4,0.3,2.9,0.5,4.3c0.6,3.3,0.8,6.4-1.9,8.4c0.1,2.1,0.2,3.8,0.3,5.5c0,2.2,0.1,4.5,0,6.7
			c0,1.8-0.1,3.5-0.2,5.3c-0.1,1.6-0.7,2.8-2.1,2.9c-0.7,2.1-1.2,4.1-2.1,5.8c-0.9,1.7-2.2,3.1-3.4,4.6c-0.8,1-1.7,1.6-3,1.9
			c-1.3,0.3-2.6,0.6-3.9,0.9c-0.8,0-1.6,0-2.4,0c-2.1-0.7-4.2-1.4-6.3-2.3c-1.4-0.6-3-1.3-3-3.5c-1,0.3-1.7,0.5-2.3,0.8
			c-4.4,2.5-9.1,2.7-14,2.3c-1.4-0.1-2.9-0.2-4.3-0.1c-2.2,0.1-4.3,0-6-1.8c-4.4,2.5-9.1,3.1-14,2.9c-4.1-0.2-8.1-0.4-12.2,0.2
			c-2,0.3-3.8-0.1-4.5-2.5c-3.8,2.2-7.8,2.6-12,2.3c-4.4-0.4-8.9-1.1-13.4-0.2c-2.7,0.5-3.1,0-4-2.5c0-0.1-0.2-0.2-0.5-0.4
			c-0.7,0.2-1.4,0.5-2.2,0.7c-1.8,0.4-3.6,1-5.4,1.2c-5.5,0.4-11,0.6-16.5,1c-2,0.1-3.8-0.1-4.7-2.2c-2.4,0.8-4.6,1.8-7,2.1
			c-3.2,0.5-6.5,0.6-9.8,0.6c-4.4,0-8.8-0.4-13.2-0.3c-2,0-3.8,0.2-4.9-1.7c-1.5,0.5-2.9,1.1-4.3,1.3c-3.2,0.3-6.4,0.6-9.5,0.6
			c-3.2,0-6.4-0.1-9.6-0.4c-1.6-0.2-3.3-0.8-4.7-1.5c-1.1-0.6-2-0.7-3.1-0.2c-3.1,1.3-6.3,1.9-9.6,1.7c-5.3-0.3-10.5-0.8-15.7-1.3
			c-1.3-0.1-2.6-0.1-3.1-1.6c-0.7,0.5-1.3,0.7-1.8,1.1c-1.6,1.4-3.5,1.9-5.6,1.8c-1.1-0.1-2.2-0.1-3.3-0.3c-3.6-0.4-7.1-1-10.7-1.3
			c-0.8-0.1-1.8,0-2.5,0.4c-3.9,2.1-8.1,2.4-12.4,2c-0.9-0.1-1.8-0.1-2.6-0.1c-4,0.1-8,0.2-12,0.3c-2,0.1-3.6-0.4-4.2-2.3
			c-2.6,0.6-5.1,1.6-7.6,1.8c-6.3,0.4-12.6,1-18.9,0.3c-2-0.2-3.7-0.7-4.9-2.5c-0.4,0.1-0.7,0.2-0.9,0.3c-3.8,2.6-8,2.9-12.4,2.5
			c-3.6-0.3-7.2-0.5-10.8-0.5c-1.7,0-3.1,0.1-3.8-1.4c-3.5,0.6-6.8,1.5-10.1,1.8c-3.8,0.3-7.7,0-11.5,0c-3,0-6.1,0.1-9.1,0.1
			c-0.9,0-2.2-0.1-2.7-0.7c-1-1.3-2.1-0.9-3.2-0.7c-4.6,0.8-9.2,1-13.9,0.8c-3.1-0.1-6.2,0-9.3,0c-0.9,0-1.8,0.1-2.6-0.3
			c-0.6-0.3-1-1.1-1.6-1.7c-0.3,0.1-0.7,0.1-1.1,0.3c-2.7,0.9-5.4,1.3-8.2,1.4c-4.7,0-9.4,0.2-14.1,0.6c-2.2,0.2-4,0.3-4.9-2.2
			c-4.6,1.2-9.1,2-13.7,1.9c-4.1-0.1-8.1-0.1-12.2-0.2c-1.3,0-2.6,0-3.8-0.5c-1-0.4-1.8-1.5-2.8-2.3c-0.2,0-0.5,0.1-0.8,0.1
			c-7.2,1.4-14.6,2-21.9,2.4c-1.2,0.1-2.5,0.1-3.2-1c-0.8-1.3-1.9-1.3-3.1-1.2c-6.8,0.5-13.7,1-20.5,1.6c-2.4,0.2-4.7,0.3-6-1.7
			c-3.1,0.2-5.8,0.5-8.5,0.6c-3.6,0.2-7.2,0.3-10.8,0.3c-2.9,0-5.8,0-8.6-0.2c-0.9-0.1-1.9-0.6-2.5-1.2c-0.7-0.8-1.4-1-2.3-0.9
			c-2.5,0.3-4.9,0.7-7.4,1c-5.3,0.7-10.6,1.3-15.9,2.1c-2.3,0.3-4.4,0.5-6.4-0.9c-4.9,2.5-10,3.5-15.4,3.1c-2.9-0.2-5.7-0.4-8.6-0.4
			c-1.8,0-3.3-0.1-4.1-1.9c-4.8,1.2-9.4,1.9-14.1,1.3c-2.5-0.3-5.1-0.6-7.6,0.1c-0.3,0.1-0.6,0-1,0c-4.7,0.3-9.4-0.3-13.9-1.5
			c-1.5,1.9-1.5,1.8-3.9,1.9c-2.6,0-5.1,0.2-7.7,0.4c-4.2,0.3-8.3,0.2-12.3-1.2c-1.5-0.6-3-1.1-3.8-1.4c-2.1,0.3-3.7,0.9-5.2,0.7
			c-5.6-0.6-11.1-1.4-16.6-2.1c-2.8-0.4-5.7-0.8-8.5-1.1c-0.6-0.1-1.5,0.2-1.9,0.6c-1,1.2-2.2,1.5-3.6,1.5c-2,0-4,0.2-6,0.2
			c-2.6,0-5.3-0.3-7.9-0.3c-4,0-8,0.2-12-0.6c-0.5-0.1-1.3,0.1-1.7,0.5c-1.2,1.2-2.6,1.4-4.2,1.3c-2.2-0.1-4.3-0.2-6.5-0.4
			c-5-0.4-10-0.8-15-1.2c-1.4-0.1-2.6-0.3-3.6,1.2c-0.4,0.6-1.7,1-2.5,1c-3.6-0.1-7.2-0.3-10.8-0.7c-4.3-0.5-8.5-1.2-12.8-1.8
			c-2,2.5-2.4,2.7-5.7,2.7c-4.6,0.1-9.1,0.2-13.7,0.2c-1.4,0-2.7,0-4.1-0.2c-2.9-0.4-5.8-0.9-8.8-1.5c-0.8,2-2.4,2.2-4.4,2
			c-3.3-0.3-6.7-0.4-10-0.5c-4.5-0.1-9,0-13.2-1.6c-0.2-0.1-0.5,0-0.9-0.1c-0.5,2.2-2.2,2-4,1.9c-1.4-0.1-2.9-0.3-4.3-0.2
			c-6.9,0.2-13.9,0.7-20.9-1c-0.9,1.9-2.7,1.9-4.3,2c-0.7,0-1.4,0-2.2,0c-4.8,0-9.6-0.1-14.4,0c-3.4,0-6.7-0.1-9.9-1.2
			c-1.1-0.4-2.3-0.7-3.6-1.1c-0.7,1.8-2.1,2-3.7,1.6c-0.6-0.1-1.3-0.1-1.9,0c-3.5,0.2-7,0.4-10.5,0.6c-3.7,0.2-7.2-0.2-10.3-2.4
			c-0.4-0.3-1-0.4-1.5-0.6c-1.1,1.8-2.8,2.4-4.7,2.5c-0.6,0-1.1,0.1-1.7,0.1c-6.7,0.5-13.4,0.1-20.1-0.8c-1.6-0.2-3.2-1-4.9-1.5
			c-0.4,1.8-1.6,2.5-3.3,2.5c-3.8,0-7.7-0.1-11.5-0.2c-1.4,0-2.9-0.1-4.3,0c-3.6,0.2-7.3,0.2-10.6-1.4c-2.2-1.1-4.2-1.1-6.5-0.8
			c-3.2,0.5-6.3,0.9-9.5,1.3c-3,0.3-5.9,0.2-8.3-2.1c-0.3-0.3-0.7-0.4-0.6-0.3c-1.3,0.5-2.1,1.1-3.1,1.2c-3.5,0.4-7,0.8-10.5,1.1
			c-5.3,0.5-10.5,0.6-15.6-1.5c-1-0.4-1.9-0.5-2.9,0.2c-1.6,1.3-3.6,1.6-5.6,1.7c-1.4,0-2.7,0.1-4.1,0.2c-6.2,0.3-12.5,0.6-18.4-1.7
			c-1.9,1.8-1.9,1.8-4.6,1.6c-1.1-0.1-2.2-0.1-3.4-0.1c-3.8,0.1-7.5,0.4-11.2,0.5c-5.2,0.1-10.4-0.2-15.2-2.8
			c-0.1-0.1-0.3,0-0.6,0.1c-0.6,1.4-1.8,2.3-3.5,2.1c-8.3-0.7-16.8,0-24.9-2.8c-0.1,0-0.3,0-0.5,0c-1.1,2.9-1.7,3.2-4.8,2.8
			c-0.2,0-0.3-0.1-0.5-0.1c-2.5-0.1-4.9-0.3-7.4-0.1c-5.7,0.4-11.5,1.5-17.1-2c-0.4,2.6-2.2,2.7-4,2.6c-0.8,0-1.6-0.1-2.4-0.1
			c-2.6,0-5.3-0.2-7.9-0.1c-5.5,0.2-10.9,0-15.9-2.6c-0.1-0.1-0.3,0-0.6,0c-1.4,1.5-3.3,1.7-5.2,1.6c-1.8,0-3.7,0-5.5,0.1
			c-4.6,0.3-9.1,0.1-13.2-2.3c-0.6-0.4-1.4-0.5-2.1-0.7c-0.9,2.1-0.8,2.3-2.5,3C25,686,22.5,686.7,20.2,687.6z M1220.8,651.1
			c0.9-2,0.9-2,2.7-2.4c2-0.5,4-1,6.1-1.4c1.1-0.2,1.7-0.8,1.7-2c0-0.7,0-1.4,0-2.2c0-11.8,0-23.7,0-35.5c0-189.5,0-379.1,0-568.6
			c0-1,0-2.1,0-3.1c0.1-1.4-0.5-2.2-1.9-2.6c-1.9-0.5-3.8-1.2-5.7-1.8c-1.5-0.4-2.8-0.9-2.6-3c-1.5,0-2.9,0-4.2,0
			c-93.2,0-186.3,0-279.5,0c-85.3,0-170.6,0-256,0c-4.2,0-8.3,0.2-12.4,1c-8.4,1.7-16.3,4.6-22.9,10.2c-0.4,0.3-0.9,0.6-1.4,0.8
			c-1.7-1.3-3.3-2.6-5.1-3.7c-9.2-5.6-19.2-8.3-29.9-8.4c-14.2-0.1-28.3-0.1-42.5-0.1c-66.9,0-133.9,0-200.8,0
			c-97.6,0-195.3,0-292.9,0c-2.3,0-4.8-0.4-6.8,1.2c-9,2.9-18,5.7-26.9,8.6c-1.2,0.4-2.4,0.8-3.7,1.2c0,201.2,0,402.2,0,603.2
			c0.6,0.2,1.1,0.4,1.7,0.5c9.3,2.1,18.7,4.2,28,6.3c0.6,0.1,1.4,0.1,1.8,0.5c1,1,2.2,0.8,3.3,0.8c51.7,0,103.3,0,155,0
			c58.2,0,116.4,0,174.6,0c69,0,138,0,207,0c4.6,0,9.1-0.4,13.6-1.4c8.2-1.9,15.9-4.9,22.3-10.6c0.4-0.4,0.9-0.6,1.4-0.9
			c1.7,1.3,3.3,2.7,5,3.9c9.3,6.1,19.6,9,30.6,9c13.8,0.1,27.7,0.1,41.5,0.1c69.8,0,139.6,0,209.4,0c95.6,0,191.3,0,286.9,0
			C1219.2,651.1,1220,651.1,1220.8,651.1z M1232.6,646.6c0.9-0.1,1.6-0.2,2.3-0.4c3.6-0.6,3.6-0.7,3.6-4.3c0-11.4,0-22.9,0-34.3
			c0-188.9,0-377.7,0-566.6c0-1.1,0.1-2.2-0.1-3.4c-0.1-0.6-0.4-1.3-0.9-1.6c-1.5-0.8-3.2-1.4-5.2-1.3c-0.1,0.8-0.2,1.6-0.2,2.4
			C1231.4,66.6,1231.8,644.1,1232.6,646.6z M1244.8,643.8c1-0.2,1.9-0.3,2.7-0.5c2.1-0.5,2.2-0.6,2.2-2.7c0-2.6-0.1-5.1-0.1-7.7
			c0-13.6,0.1-27.2,0.1-40.8c0-40.6,0-81.2,0-121.9c0-29.7,0-59.5,0-89.2c0-35.9,0-71.8,0-107.7c0-34.6,0-69.2,0-103.9
			c0-31.7,0-63.5,0-95.2c0-2.6-0.1-5.1-0.1-7.7c0-8.1,0.1-16.2,0.1-24.2c0-2.6-0.3-2.8-3.3-3.1c-0.1,0.9-0.3,1.8-0.3,2.7
			c-0.2,46.3-0.3,92.6-0.5,138.9c-0.2,56.5-0.3,112.9-0.5,169.4c-0.1,49.3-0.4,98.5-0.5,147.8c-0.1,45.2-0.1,90.4-0.2,135.5
			c0,1.9-0.2,3.8-0.3,5.7C1244.2,640.7,1243.8,642.2,1244.8,643.8z M1241.5,37.3c-0.1,1.9-0.2,3.3-0.2,4.7c0,185.7,0,371.4,0,557
			c0,13.9,0,27.8,0,41.7c0,0.8-0.1,1.6,0.1,2.4c0.1,0.4,0.6,1,1,1.1c0.4,0,1.1-0.5,1.2-0.9c0.2-0.9,0.2-1.9,0.2-2.9
			c0.1-36.7,0.3-73.4,0.4-110.1c0.2-50.8,0.3-101.5,0.5-152.3c0.2-45.4,0.3-90.8,0.5-136.2c0.2-53.2,0.3-106.5,0.5-159.7
			c0-13.4,0-26.7,0-40.1c0-0.7,0-1.4,0-2.2c0-0.9-0.5-1.5-1.4-1.8C1243.5,37.9,1242.8,37.7,1241.5,37.3z M1239.9,36.3
			c-1.3,1.7-1,3-1,4.3c0,200.1,0,400.3,0,600.4c0,0.9,0,1.8,0.1,2.6c0.1,0.5,0.5,0.8,0.8,1.3c1.4-0.9,1.1-2.1,1.1-3.1
			c0-10.8,0-21.6,0-32.4c0-189.2,0-378.4,0-567.6c0-1.1,0.1-2.2-0.1-3.4C1240.7,37.9,1240.3,37.3,1239.9,36.3z"/>
	</g>
</g>
<g id="Слой_1__x28_копия_x29_">
	<g>
		<path class="st0" d="M20.2,687.6c-0.8,0-1.6,0-2.4,0c-0.8-0.2-1.7-0.4-2.5-0.6c-1.1-0.4-2.6-0.5-3.3-1.3c-1.9-2.2-3.6-4.7-5.2-7.1
			c-0.4-0.6-0.4-1.5-0.5-2.3c-0.1-0.6-0.1-1.2-0.2-1.8c-2.1-0.7-2.2-0.7-2.6-2.5c-0.1-0.6-0.2-1.3-0.2-1.9c0-3.4,0-6.9,0-10.3
			c0-1.8,0.1-3.6,0.2-5.7c-2.5-1.9-2.4-4.8-2-7.8c0.3-2,0.5-4.1,0.6-6.2c0.1-2.5-0.1-5,0.1-7.4c0.2-2.7,0.5-5.4,0.9-8.1
			c0.2-1.3,0.8-2.5,1.3-3.9c-2-0.2-2.4-1.4-2.4-3.1c0.1-5.3,0-10.6,0.2-15.8c0.1-2.1,0.5-4.3,1.2-6.3c0.6-1.9,1.6-3.6,0.6-5.8
			c-0.6-1.4-0.3-3.2-0.6-4.7c-1.2-7.6-1.7-15.1,1.6-22.5c-1.6-1.1-1.9-2.7-1.9-4.5c0.3-6.3-0.5-12.6,1.6-18.8
			c0.3-0.7,0.4-1.7,0.1-2.3c-1.5-3-1.7-6.2-1.2-9.4c0.8-5.5,0.2-11.2,2-16.1c-0.7-1.3-1.5-2.2-1.6-3.2c-0.3-2.5-0.4-5.1-0.4-7.6
			c-0.1-4.5-0.1-8.9,0-13.4c0-1.3,0.4-2.7,0.7-4c0.2-0.8,0.5-1.7,0.9-2.7c-1.8-0.4-1.9-1.7-1.8-3.1c0.2-2.4,0.4-4.8,0.5-7.2
			c0.1-3.2,0-6.4,0-9.6c0-2.1-0.3-4.2-0.2-6.2c0.1-1.9,0.6-3.7-0.5-5.5c-0.3-0.5-0.2-1.3-0.2-1.9c0.1-2.6,0.2-5.1,0.4-7.7
			c0.1-3,0.3-6.1,0.5-9.1c0.2-3.1,0.6-6.2-0.5-9.2c-0.1-0.2,0-0.5,0-0.7c0-3-0.1-5.9-0.1-8.9c0-1.7,0.2-3.4,0-5
			c-0.3-3.4-0.6-6.7,1.3-9.9c-1.1-1.2-1.5-2.4-1.4-4c0.3-5.2,0.6-10.4,0.9-15.5c0.1-1,0-1.9,0.2-2.9c0.3-2.1,1.1-4.2-0.1-6.3
			c-0.2-5.7-0.7-11.5,0.3-17.2c0.6-3.6,1.2-7.2,1.9-11c-2-0.8-2.7-2.6-2.7-4.9c0-3-0.3-6.1-0.5-9.1c-0.2-4.2-0.2-8.3,2.1-12.2
			c-2.7-1.5-2.7-3.7-2-6.3c0.3-1,0.5-2,0.5-3.1c0.1-3.4,0-6.7,0.1-10.1c0-1.7,0.1-3.5,0.5-5.2c0.5-2.5,1.3-4.9,2-7.5
			c-1.5-0.7-1.3-2.1-1.2-3.5c0.2-4.4,0.3-8.7-0.3-13.1c-0.7-4.8,0-9.5,1.9-14.1c-1.6-1.1-2-2.6-2.1-4.4C4.3,241,4,235.9,4,230.8
			c0-2.7-0.1-5.5,1.7-7.9c-2-1.8-2.1-4.1-1.6-6.3c0.6-2.9,0.3-5.7,0.1-8.6c-0.3-3.2-0.2-6.4,0.9-9.5c0.5-1.5,1-3,1.6-4.6
			c-1.8-0.7-2-2.2-2-3.7c-0.1-2.4-0.4-4.8-0.4-7.2c0-4,0-8,0.3-12c0.2-2.1,1.2-4.1,1.8-6.3c-0.9-0.8-1.4-1.8-1.4-3.2
			c0-4.3-0.2-8.6-0.3-12.9c0-4.4,0-8.8,2.2-12.8c0.4-0.7,0.3-1.3,0-2c-0.8-2.1-1.8-4.1-1.9-6.4c-0.4-7.5-0.3-14.9,2.1-22.1
			c-1.5-1.5-1.7-3.3-1.4-5.3c0.2-1.1,0.2-2.2,0.2-3.3C5.9,91,5.8,85.4,7.3,80c0.1-0.3,0.1-0.7,0-0.9c-1.6-2.4-1.4-5.2-1.4-7.9
			C5.8,66.1,6,61.1,8,56.3c0.2-0.5,0.3-1.1,0.2-1.6c-1-4.8-0.4-9.7-0.3-14.6c0-2.1,0.3-4.3,1.5-6.2c0.3-0.5,0.4-1.3,0.2-1.8
			c-0.9-2.2-0.7-4.5-0.6-6.9c0.3-4,0.6-8,0.7-11.9c0-2.7,1-4,3.8-4c1.1,0,2.2,0,3.3,0c0.1-2.8,0.3-3,2.8-3.9c4.3-1.6,8.7-2.9,13.3-2
			C34,3.5,35,3.9,36,4.3c1.3,0.6,2.5,1.3,3.2,1.6c1.8-0.9,3-1.8,4.3-2.1c3.3-0.7,6.7-1.3,10.1-1.7c6-0.7,11.9-1.3,17.8,0.6
			c0.4,0.1,1,0.1,1.3-0.1c1.6-1.3,3.5-1.1,5.3-1c4.4,0.1,8.8,0.2,13.2,0.5c2.2,0.1,4.4,0.6,6.6,1.1c1.3,0.4,2.5,0.9,3.8,0
			c0.5-0.3,1.2-0.3,1.9-0.3c4.8,0,9.6,0.1,14.4,0.1c1.1,0,2.3,0.1,3.3-0.1c2.4-0.5,4.7-0.2,7.1,0.6c0.5,0.2,1.4,0.3,1.8,0
			c1.7-1.3,3.5-1,5.2-0.2c3.3,1.5,6.7,1.3,10.1,0.6c4-0.8,8.1-1.3,11.8,1c1.4-1.8,3.2-2.2,5.2-2.1c1.2,0.1,2.4,0.3,3.5,0.5
			c2.3,0.5,4.5,0.7,6.9,0.2c4.2-0.8,8.4-0.8,12.6,0.1c0.5,0.1,1.1,0,1.6-0.2c1.7-1,3.5-1,5.4-0.8c2.2,0.2,4.4,0.6,6.6,1.1
			c2.8,0.6,5.7,0.9,8.6,0.7c2.1-0.1,4.1,0.1,6.2,0.1c1.2,0,2.4-0.1,3.5-0.1c2.5-0.2,4.9-0.4,7.4-0.6c1.8-0.1,3.5,0.1,5.3-0.1
			c3.9-0.3,7.8-0.9,11.7-1c1.6-0.1,3.3,0.6,4.9,0.9c0.6,0.1,1.2,0.4,1.8,0.5c1.3,0,2.7-0.1,4-0.1c1,0,1.9,0.1,2.8-0.1
			c4.2-1.1,8.5-1.6,12.8-1.4c0.9,0,1.7-0.2,2.6-0.2c3.6,0,7.2-0.4,10.7,1.2c1.7-1.2,3.7-1.3,5.9-1.1c2.1,0.2,4.3,0.1,6.5,0
			c3-0.1,5.9-0.3,8.9-0.2c2.9,0.1,5.8,0.4,8.3,2c1.3,0.9,2.6,1,4.1,0.6c3.5-1,7.2-1.6,10.7-0.7c4.4,1.1,8.7,0.6,13.1,0.8
			c0.3,0,0.6,0.1,1,0.1c0.3,0,0.7,0,0.9-0.2c1.4-1.4,3.3-1.1,5-1.2c2.1-0.2,4.2,0,6.2-0.1c2.8-0.1,5.6-0.3,8.3-0.4
			c1,0,1.9-0.2,2.9,0c1.5,0.3,2.8,1.1,4.3,1.2c1.5,0.1,3.1-0.4,4.7-0.4c4.3,0,8.6,0.3,12.9,0.2c2.6,0,5.3-0.1,7.8,0.6
			c0.5,0.1,1.3,0.2,1.5-0.1c1.1-1.1,2.5-1,3.8-1c4.7-0.2,9.4-0.3,14.1-0.6c3-0.2,5.9-0.4,8.8,0.7c0.5,0.2,1.3,0.1,1.7-0.2
			c1.5-1,3.2-1.1,4.8-1.1c4.7,0,9.4-0.1,14.1,0.2c4,0.3,8.2,0.2,12,1.7c0.3,0.1,0.7,0.3,0.9,0.1c2.3-1.5,4.8-0.5,7.2-0.5
			c4.6,0,9.1,0.3,13.7,0.2c4-0.1,8-0.1,11.9,1.7c1.3-2.3,3.5-3,5.9-3c2.2,0,4.5,0.1,6.6,0.5c2.5,0.4,4.9,0.6,7.4,0.3
			c2.5-0.2,5.1-0.6,7.6,0.4c0.3,0.1,0.6,0.2,0.9,0.1c3.2-1.1,6.5-0.7,9.7-0.7c2.3,0,4.6-0.2,6.9-0.6c3.2-0.6,6.3-0.6,9.4,0.8
			c0.5,0.2,1.2,0.2,1.8,0C550,2.1,556.5,1,563.1,1c2.6,0,5.3,0,7.8,1c0.6,0.2,1.2,0.2,1.9,0.2c1.2,0,2.4-0.2,3.6-0.1
			c4.5,0.3,8.9,0.8,13.4,0.9c3.3,0.1,6.5-0.3,9,0.7c2.2-0.7,3.7-1.5,5.3-1.7c2.4-0.4,4.9-0.8,7.4-0.6c2.8,0.2,5.6,0.7,8.2,1.5
			c1.8,0.5,3.3,1.9,4.9,2.9c0.9-1.6,2.5-2,4.2-2.1c3.4-0.1,6.7,0.1,10,0.8c2,0.4,3.9,0.7,5.1,2.6c1.1-0.6,2-1.2,3-1.8
			c3.3-1.8,6.9-1.7,10.5-1.6c2,0,3.8,0.4,4.9,2.2c4.2-3.1,4.4-3.3,8.4-3.9c5.8-1,11.6-0.7,16.8,1.8c2-0.2,3.9-0.6,5.8-0.7
			c3.6-0.2,7.2,0,10.8-0.4c4.9-0.6,9.9,0.3,14.7-1.3c0.9-0.3,1.9-0.2,2.9-0.2c3.1,0.1,6.3,0.1,9.3,0.5c4,0.5,8,1.4,12,2.2
			c0.7,0.1,1.4,0.2,2-0.1c2.9-1.2,5.9-1.5,8.9-0.7c2.7,0.7,5.4,0.8,8.1,0.6c3-0.2,5.9-0.2,8.8,0.7c0.3,0.1,0.6,0.1,0.9,0
			c2.6-1,5.4-0.5,8.1-0.4c2.1,0.1,4.3-0.1,6.4-0.3c1.3-0.1,2.7-0.5,4-0.6c3.5-0.2,6.9-0.2,9.2,3.1c3.6-1.8,7.4-1.8,11.1-1.7
			c2.1,0.1,4.2,0.2,6.2,0.1c3.9-0.1,7.8-0.4,11.7-0.6c0.8,0,1.7-0.2,2.3,0.2c1.1,0.7,2.1,0.4,3.1,0.1c1.1-0.4,2.2-0.7,3.3-0.8
			c4.3-0.3,8.6-0.5,12.9-0.7c2.8-0.1,5.6-0.1,8.4-0.1c1.9,0,3.8,0,5.5,1.2c0.4,0.3,1.2,0.2,1.8,0c2.5-0.9,5-1.1,7.6-0.7
			c5.1,0.8,10.2,0.7,15.3,0.6c1.6,0,3,0.2,3.8,1.1c2.9-0.2,5.4-0.5,7.9-0.6c4.8-0.1,9.6-0.2,14.4-0.2c1.3,0,2.7,0.2,4,0.3
			c0.7,0,1.5,0.1,2-0.2c1.9-1.1,4-1,6.1-0.8c2.1,0.2,4.3,0.4,6.4,0.4c2.6,0.1,5.1-0.1,7.7,0c1.4,0.1,3,0,4.2,0.7
			c1.2,0.7,2.2,0.7,3.4,0.7c1.8,0,3.7,0.1,5.5,0.1c1,0,2,0.1,2.9-0.2c5.1-1.4,10.1-1.4,15.2,0c1.4,0.4,2.4,0.1,3.6-0.6
			c1.5-0.7,3.1-1.4,4.7-1.7c4.1-0.7,8.3-0.7,12.4-0.3c2.1,0.2,4.2,0.3,6.2,0.1c2.3-0.3,4.4-0.2,5.9,0.7c2.3-0.3,4-0.8,5.7-0.8
			c4.1-0.1,8.1,0,12.2,0.1c1.3,0,2.5,0.2,3.8,0.4c3.3,0.5,6.5,1.7,9.9,0.9c0.4-0.1,0.9-0.1,1.2,0.1c0.8,0.5,1.5,0,2.3-0.2
			c1.7-0.5,3.4-1,5.1-1c3.3,0.1,6.5,0.5,9.8,0.8c1.9,0.1,3.8,0.3,5.7,0.3c3.2,0,6.4,0.1,9.5,0.9c0.6,0.2,1.3,0.1,1.9,0.1
			c2.3-0.1,4.6-0.4,6.9-0.3c2.8,0.2,5.6-0.2,8.3-0.7c2.3-0.4,4.6-0.8,6.9-1.1c1.7-0.2,3.6-0.3,5.2,0.6c0.9,0.5,1.6,0.4,2.5,0.3
			c3.4-0.5,6.8-0.8,10.3-0.2c3.3,0.6,6.5,0.7,9.7-0.3c0.8-0.3,1.7-0.3,2.6-0.3c2-0.1,3.8,0.2,5,2.3c2.2-1.6,4.7-2,7.3-1.8
			c1.3,0.1,2.7,0.3,4,0.6c3.6,0.7,7.1,1,10.6-0.6c2-0.9,4-1,5.8,0.7c2.9-1.3,5.9-1.6,8.9-1c0.5,0.1,1,0.1,1.4,0.1
			c5,0,10.1-0.1,15.1-0.1c0.6,0,1.4-0.2,1.9,0.1c1.8,1.2,3.5,0.4,5.2-0.2c0.6-0.2,1.2-0.4,1.9-0.4c6.5-0.3,12.9-0.6,19.4-0.9
			c0.8,0,1.8,0.3,2.4,0.8c0.8,0.5,1.4,0.5,2.2,0.2c2.7-0.8,5.5-1.3,8.3-1.1c5.6,0.5,11.1,0.9,16.7,1.6c2.2,0.3,4.6,0.6,6.2,3
			c1.3-0.6,2.5-1.3,3.8-1.9c1-0.4,2.1-0.8,3.1-1c4.6-0.9,8.9,0.2,13.1,1.9c0.9,0.4,2,0.8,2.6,1.5c0.5,0.5,0.4,1.6,0.6,2.5
			c1.2,0,2.4-0.1,3.6,0c2.5,0.2,3.7,1.7,3.4,4.2c-0.1,1.1-0.2,2.2-0.1,3.3c0.3,4,1,8,0.7,11.9c-0.2,3-0.6,5.7,0.9,8.4
			c0.2,4.5,0.6,8.9,0.4,13.4c-0.1,3-0.2,5.9,0.7,8.9c0.9,2.7,1.1,5.7,1.2,8.5c0.1,3.7,0.4,7.5-1.4,11c-0.2,0.3,0,0.9,0.1,1.4
			c0.4,2.9,0.9,5.8,1.1,8.8c0.3,3.6,0.2,7.2,0.4,10.8c0.1,2.1,0.1,4-1.2,5.2c0.5,2.9,1.2,5.5,1.5,8.1c0.9,6.9,1.6,13.8-1.5,20.5
			c-0.4,0.9-0.2,1.6,0.2,2.5c0.6,1.4,1.2,2.8,1.4,4.3c0.3,3.4,0.5,6.8,0.5,10.3c0,3.3-0.4,6.6-0.2,9.8c0.1,1.8,0.1,3.3-1.6,4.5
			c2.1,3.5,2.6,7.2,2.5,11c-0.1,4.7-0.4,9.4-0.5,14.1c0,1.7-0.3,3.2-2.1,4c2.3,4.8,2.9,9.7,2.5,14.8c-0.2,2.8,0,5.6,0.3,8.4
			c0.2,2.1-0.2,4-1.5,5.5c0.4,1.5,1.1,2.9,1.2,4.3c0.3,6.1,0.7,12.1,0,18.2c-0.2,2.1-0.2,4.2-2.2,5.4c2,5.4,2.6,10.7,1.7,16.2
			c-0.4,2.4-0.3,4.9-0.3,7.4c0,1.1,0.2,2.2,0.2,3.3c0.1,1.5,0.1,3.1-1.4,4c2.3,5,2.7,10,2.5,15.2c-0.1,3.6,0.4,7.2,0.8,10.7
			c0.3,2.4,0.4,4.6-2.2,6c2,3.5,2.3,7.1,2.2,10.8c-0.2,3.9-0.5,7.8-0.7,11.7c-0.1,1.4-0.6,2.4-1.9,3.1c-0.3,0.2-0.6,0.5-0.9,0.7
			c0.4,1.6,0.8,3,1.1,4.5c1.2,6.5,1.9,13,1.4,19.6c-0.2,2.1-0.8,4.2-0.8,6.4c0,2.2,0.7,4.4,0.8,6.6c0.3,5.3,0.6,10.5,0.7,15.8
			c0,0.9-0.1,2-0.6,2.7c-0.6,0.9-0.5,1.5-0.1,2.4c1.1,2.4,1.2,4.9,0.8,7.5c-0.1,0.8-0.2,1.6-0.2,2.4c0,4,0,8,0,12
			c0,0.8,0,1.6-0.2,2.4c-0.7,1.9-0.8,3.9-0.3,5.8c0.1,0.3,0,0.6,0,1c0.3,5.7,0.6,11.5,0.8,17.2c0,1.3-0.4,2.6-0.6,4
			c-0.1,0.7-0.2,1.4-0.2,2c0,3.1-0.1,6.2-0.1,9.3c0,2.2-0.2,4.3-0.1,6.5c0.1,3,0.4,6.1,0.7,9.1c0.1,1.6,0,3-1.8,3.6
			c0.2,0.7,0.4,1.2,0.6,1.8c0.9,2.4,1.4,4.7,0.9,7.3c-0.1,0.6-0.1,1.3-0.1,1.9c0.6,4.9,0.1,9.7-0.1,14.6c-0.1,2-0.2,3.8-2.1,4.8
			c0.4,1.3,0.9,2.5,1.1,3.6c0.5,5.2,1,10.3,1.3,15.5c0.1,1.7,0,3.7-0.7,5.2c-1,2.1-0.6,3.8,0,5.7c0.5,1.8,0.9,3.6,1,5.4
			c0.2,3.5,0.1,7,0.1,10.6c0,2.1,0,4.2-1.4,5.4c0.7,3.1,1.4,5.8,1.8,8.5c0.8,5,0,9.9-0.7,14.8c-0.2,1.7-0.2,3.6-0.7,5.2
			c-0.4,1-0.4,1.8,0.1,2.7c1.4,2.8,1.9,5.7,1.9,8.8c0,4.9,0.1,9.8,0.2,14.6c0.1,2.5,0,2.9-2.5,4.1c2.3,4.3,2.2,8.9,2.2,13.5
			c0,2.3-0.1,4.6,0,7c0,1.4,0.3,2.9,0.5,4.3c0.6,3.3,0.8,6.4-1.9,8.4c0.1,2.1,0.2,3.8,0.3,5.5c0,2.2,0.1,4.5,0,6.7
			c0,1.8-0.1,3.5-0.2,5.3c-0.1,1.6-0.7,2.8-2.1,2.9c-0.7,2.1-1.2,4.1-2.1,5.8c-0.9,1.7-2.2,3.1-3.4,4.6c-0.8,1-1.7,1.6-3,1.9
			c-1.3,0.3-2.6,0.6-3.9,0.9c-0.8,0-1.6,0-2.4,0c-2.1-0.7-4.2-1.4-6.3-2.3c-1.4-0.6-3-1.3-3-3.5c-1,0.3-1.7,0.5-2.3,0.8
			c-4.4,2.5-9.1,2.7-14,2.3c-1.4-0.1-2.9-0.2-4.3-0.1c-2.2,0.1-4.3,0-6-1.8c-4.4,2.5-9.1,3.1-14,2.9c-4.1-0.2-8.1-0.4-12.2,0.2
			c-2,0.3-3.8-0.1-4.5-2.5c-3.8,2.2-7.8,2.6-12,2.3c-4.4-0.4-8.9-1.1-13.4-0.2c-2.7,0.5-3.1,0-4-2.5c0-0.1-0.2-0.2-0.5-0.4
			c-0.7,0.2-1.4,0.5-2.2,0.7c-1.8,0.4-3.6,1-5.4,1.2c-5.5,0.4-11,0.6-16.5,1c-2,0.1-3.8-0.1-4.7-2.2c-2.4,0.8-4.6,1.8-7,2.1
			c-3.2,0.5-6.5,0.6-9.8,0.6c-4.4,0-8.8-0.4-13.2-0.3c-2,0-3.8,0.2-4.9-1.7c-1.5,0.5-2.9,1.1-4.3,1.3c-3.2,0.3-6.4,0.6-9.5,0.6
			c-3.2,0-6.4-0.1-9.6-0.4c-1.6-0.2-3.3-0.8-4.7-1.5c-1.1-0.6-2-0.7-3.1-0.2c-3.1,1.3-6.3,1.9-9.6,1.7c-5.3-0.3-10.5-0.8-15.7-1.3
			c-1.3-0.1-2.6-0.1-3.1-1.6c-0.7,0.5-1.3,0.7-1.8,1.1c-1.6,1.4-3.5,1.9-5.6,1.8c-1.1-0.1-2.2-0.1-3.3-0.3c-3.6-0.4-7.1-1-10.7-1.3
			c-0.8-0.1-1.8,0-2.5,0.4c-3.9,2.1-8.1,2.4-12.4,2c-0.9-0.1-1.8-0.1-2.6-0.1c-4,0.1-8,0.2-12,0.3c-2,0.1-3.6-0.4-4.2-2.3
			c-2.6,0.6-5.1,1.6-7.6,1.8c-6.3,0.4-12.6,1-18.9,0.3c-2-0.2-3.7-0.7-4.9-2.5c-0.4,0.1-0.7,0.2-0.9,0.3c-3.8,2.6-8,2.9-12.4,2.5
			c-3.6-0.3-7.2-0.5-10.8-0.5c-1.7,0-3.1,0.1-3.8-1.4c-3.5,0.6-6.8,1.5-10.1,1.8c-3.8,0.3-7.7,0-11.5,0c-3,0-6.1,0.1-9.1,0.1
			c-0.9,0-2.2-0.1-2.7-0.7c-1-1.3-2.1-0.9-3.2-0.7c-4.6,0.8-9.2,1-13.9,0.8c-3.1-0.1-6.2,0-9.3,0c-0.9,0-1.8,0.1-2.6-0.3
			c-0.6-0.3-1-1.1-1.6-1.7c-0.3,0.1-0.7,0.1-1.1,0.3c-2.7,0.9-5.4,1.3-8.2,1.4c-4.7,0-9.4,0.2-14.1,0.6c-2.2,0.2-4,0.3-4.9-2.2
			c-4.6,1.2-9.1,2-13.7,1.9c-4.1-0.1-8.1-0.1-12.2-0.2c-1.3,0-2.6,0-3.8-0.5c-1-0.4-1.8-1.5-2.8-2.3c-0.2,0-0.5,0.1-0.8,0.1
			c-7.2,1.4-14.6,2-21.9,2.4c-1.2,0.1-2.5,0.1-3.2-1c-0.8-1.3-1.9-1.3-3.1-1.2c-6.8,0.5-13.7,1-20.5,1.6c-2.4,0.2-4.7,0.3-6-1.7
			c-3.1,0.2-5.8,0.5-8.5,0.6c-3.6,0.2-7.2,0.3-10.8,0.3c-2.9,0-5.8,0-8.6-0.2c-0.9-0.1-1.9-0.6-2.5-1.2c-0.7-0.8-1.4-1-2.3-0.9
			c-2.5,0.3-4.9,0.7-7.4,1c-5.3,0.7-10.6,1.3-15.9,2.1c-2.3,0.3-4.4,0.5-6.4-0.9c-4.9,2.5-10,3.5-15.4,3.1c-2.9-0.2-5.7-0.4-8.6-0.4
			c-1.8,0-3.3-0.1-4.1-1.9c-4.8,1.2-9.4,1.9-14.1,1.3c-2.5-0.3-5.1-0.6-7.6,0.1c-0.3,0.1-0.6,0-1,0c-4.7,0.3-9.4-0.3-13.9-1.5
			c-1.5,1.9-1.5,1.8-3.9,1.9c-2.6,0-5.1,0.2-7.7,0.4c-4.2,0.3-8.3,0.2-12.3-1.2c-1.5-0.6-3-1.1-3.8-1.4c-2.1,0.3-3.7,0.9-5.2,0.7
			c-5.6-0.6-11.1-1.4-16.6-2.1c-2.8-0.4-5.7-0.8-8.5-1.1c-0.6-0.1-1.5,0.2-1.9,0.6c-1,1.2-2.2,1.5-3.6,1.5c-2,0-4,0.2-6,0.2
			c-2.6,0-5.3-0.3-7.9-0.3c-4,0-8,0.2-12-0.6c-0.5-0.1-1.3,0.1-1.7,0.5c-1.2,1.2-2.6,1.4-4.2,1.3c-2.2-0.1-4.3-0.2-6.5-0.4
			c-5-0.4-10-0.8-15-1.2c-1.4-0.1-2.6-0.3-3.6,1.2c-0.4,0.6-1.7,1-2.5,1c-3.6-0.1-7.2-0.3-10.8-0.7c-4.3-0.5-8.5-1.2-12.8-1.8
			c-2,2.5-2.4,2.7-5.7,2.7c-4.6,0.1-9.1,0.2-13.7,0.2c-1.4,0-2.7,0-4.1-0.2c-2.9-0.4-5.8-0.9-8.8-1.5c-0.8,2-2.4,2.2-4.4,2
			c-3.3-0.3-6.7-0.4-10-0.5c-4.5-0.1-9,0-13.2-1.6c-0.2-0.1-0.5,0-0.9-0.1c-0.5,2.2-2.2,2-4,1.9c-1.4-0.1-2.9-0.3-4.3-0.2
			c-6.9,0.2-13.9,0.7-20.9-1c-0.9,1.9-2.7,1.9-4.3,2c-0.7,0-1.4,0-2.2,0c-4.8,0-9.6-0.1-14.4,0c-3.4,0-6.7-0.1-9.9-1.2
			c-1.1-0.4-2.3-0.7-3.6-1.1c-0.7,1.8-2.1,2-3.7,1.6c-0.6-0.1-1.3-0.1-1.9,0c-3.5,0.2-7,0.4-10.5,0.6c-3.7,0.2-7.2-0.2-10.3-2.4
			c-0.4-0.3-1-0.4-1.5-0.6c-1.1,1.8-2.8,2.4-4.7,2.5c-0.6,0-1.1,0.1-1.7,0.1c-6.7,0.5-13.4,0.1-20.1-0.8c-1.6-0.2-3.2-1-4.9-1.5
			c-0.4,1.8-1.6,2.5-3.3,2.5c-3.8,0-7.7-0.1-11.5-0.2c-1.4,0-2.9-0.1-4.3,0c-3.6,0.2-7.3,0.2-10.6-1.4c-2.2-1.1-4.2-1.1-6.5-0.8
			c-3.2,0.5-6.3,0.9-9.5,1.3c-3,0.3-5.9,0.2-8.3-2.1c-0.3-0.3-0.7-0.4-0.6-0.3c-1.3,0.5-2.1,1.1-3.1,1.2c-3.5,0.4-7,0.8-10.5,1.1
			c-5.3,0.5-10.5,0.6-15.6-1.5c-1-0.4-1.9-0.5-2.9,0.2c-1.6,1.3-3.6,1.6-5.6,1.7c-1.4,0-2.7,0.1-4.1,0.2c-6.2,0.3-12.5,0.6-18.4-1.7
			c-1.9,1.8-1.9,1.8-4.6,1.6c-1.1-0.1-2.2-0.1-3.4-0.1c-3.8,0.1-7.5,0.4-11.2,0.5c-5.2,0.1-10.4-0.2-15.2-2.8
			c-0.1-0.1-0.3,0-0.6,0.1c-0.6,1.4-1.8,2.3-3.5,2.1c-8.3-0.7-16.8,0-24.9-2.8c-0.1,0-0.3,0-0.5,0c-1.1,2.9-1.7,3.2-4.8,2.8
			c-0.2,0-0.3-0.1-0.5-0.1c-2.5-0.1-4.9-0.3-7.4-0.1c-5.7,0.4-11.5,1.5-17.1-2c-0.4,2.6-2.2,2.7-4,2.6c-0.8,0-1.6-0.1-2.4-0.1
			c-2.6,0-5.3-0.2-7.9-0.1c-5.5,0.2-10.9,0-15.9-2.6c-0.1-0.1-0.3,0-0.6,0c-1.4,1.5-3.3,1.7-5.2,1.6c-1.8,0-3.7,0-5.5,0.1
			c-4.6,0.3-9.1,0.1-13.2-2.3c-0.6-0.4-1.4-0.5-2.1-0.7c-0.9,2.1-0.8,2.3-2.5,3C25,686,22.5,686.7,20.2,687.6z M1220.8,651.1
			c0.9-2,0.9-2,2.7-2.4c2-0.5,4-1,6.1-1.4c1.1-0.2,1.7-0.8,1.7-2c0-0.7,0-1.4,0-2.2c0-11.8,0-23.7,0-35.5c0-189.5,0-379.1,0-568.6
			c0-1,0-2.1,0-3.1c0.1-1.4-0.5-2.2-1.9-2.6c-1.9-0.5-3.8-1.2-5.7-1.8c-1.5-0.4-2.8-0.9-2.6-3c-1.5,0-2.9,0-4.2,0
			c-93.2,0-186.3,0-279.5,0c-85.3,0-170.6,0-256,0c-4.2,0-8.3,0.2-12.4,1c-8.4,1.7-16.3,4.6-22.9,10.2c-0.4,0.3-0.9,0.6-1.4,0.8
			c-1.7-1.3-3.3-2.6-5.1-3.7c-9.2-5.6-19.2-8.3-29.9-8.4c-14.2-0.1-28.3-0.1-42.5-0.1c-66.9,0-133.9,0-200.8,0
			c-97.6,0-195.3,0-292.9,0c-2.3,0-4.8-0.4-6.8,1.2c-9,2.9-18,5.7-26.9,8.6c-1.2,0.4-2.4,0.8-3.7,1.2c0,201.2,0,402.2,0,603.2
			c0.6,0.2,1.1,0.4,1.7,0.5c9.3,2.1,18.7,4.2,28,6.3c0.6,0.1,1.4,0.1,1.8,0.5c1,1,2.2,0.8,3.3,0.8c51.7,0,103.3,0,155,0
			c58.2,0,116.4,0,174.6,0c69,0,138,0,207,0c4.6,0,9.1-0.4,13.6-1.4c8.2-1.9,15.9-4.9,22.3-10.6c0.4-0.4,0.9-0.6,1.4-0.9
			c1.7,1.3,3.3,2.7,5,3.9c9.3,6.1,19.6,9,30.6,9c13.8,0.1,27.7,0.1,41.5,0.1c69.8,0,139.6,0,209.4,0c95.6,0,191.3,0,286.9,0
			C1219.2,651.1,1220,651.1,1220.8,651.1z M1232.6,646.6c0.9-0.1,1.6-0.2,2.3-0.4c3.6-0.6,3.6-0.7,3.6-4.3c0-11.4,0-22.9,0-34.3
			c0-188.9,0-377.7,0-566.6c0-1.1,0.1-2.2-0.1-3.4c-0.1-0.6-0.4-1.3-0.9-1.6c-1.5-0.8-3.2-1.4-5.2-1.3c-0.1,0.8-0.2,1.6-0.2,2.4
			C1231.4,66.6,1231.8,644.1,1232.6,646.6z M1244.8,643.8c1-0.2,1.9-0.3,2.7-0.5c2.1-0.5,2.2-0.6,2.2-2.7c0-2.6-0.1-5.1-0.1-7.7
			c0-13.6,0.1-27.2,0.1-40.8c0-40.6,0-81.2,0-121.9c0-29.7,0-59.5,0-89.2c0-35.9,0-71.8,0-107.7c0-34.6,0-69.2,0-103.9
			c0-31.7,0-63.5,0-95.2c0-2.6-0.1-5.1-0.1-7.7c0-8.1,0.1-16.2,0.1-24.2c0-2.6-0.3-2.8-3.3-3.1c-0.1,0.9-0.3,1.8-0.3,2.7
			c-0.2,46.3-0.3,92.6-0.5,138.9c-0.2,56.5-0.3,112.9-0.5,169.4c-0.1,49.3-0.4,98.5-0.5,147.8c-0.1,45.2-0.1,90.4-0.2,135.5
			c0,1.9-0.2,3.8-0.3,5.7C1244.2,640.7,1243.8,642.2,1244.8,643.8z M1241.5,37.3c-0.1,1.9-0.2,3.3-0.2,4.7c0,185.7,0,371.4,0,557
			c0,13.9,0,27.8,0,41.7c0,0.8-0.1,1.6,0.1,2.4c0.1,0.4,0.6,1,1,1.1c0.4,0,1.1-0.5,1.2-0.9c0.2-0.9,0.2-1.9,0.2-2.9
			c0.1-36.7,0.3-73.4,0.4-110.1c0.2-50.8,0.3-101.5,0.5-152.3c0.2-45.4,0.3-90.8,0.5-136.2c0.2-53.2,0.3-106.5,0.5-159.7
			c0-13.4,0-26.7,0-40.1c0-0.7,0-1.4,0-2.2c0-0.9-0.5-1.5-1.4-1.8C1243.5,37.9,1242.8,37.7,1241.5,37.3z M1239.9,36.3
			c-1.3,1.7-1,3-1,4.3c0,200.1,0,400.3,0,600.4c0,0.9,0,1.8,0.1,2.6c0.1,0.5,0.5,0.8,0.8,1.3c1.4-0.9,1.1-2.1,1.1-3.1
			c0-10.8,0-21.6,0-32.4c0-189.2,0-378.4,0-567.6c0-1.1,0.1-2.2-0.1-3.4C1240.7,37.9,1240.3,37.3,1239.9,36.3z"/>
	</g>
</g>
</svg>
