<?xml version="1.0" encoding="utf-8"?>
<!-- Generator: Adobe Illustrator 24.3.0, SVG Export Plug-In . SVG Version: 6.00 Build 0)  -->
<svg version="1.1" xmlns="http://www.w3.org/2000/svg" xmlns:xlink="http://www.w3.org/1999/xlink" x="0px" y="0px"
	 viewBox="0 0 2056.16 765.49" style="enable-background:new 0 0 2056.16 765.49;" xml:space="preserve">
<style type="text/css">
	.st0{display:none;}
	.st1{display:inline;}
	.st2{fill:#FFFFFF;}
	.st3{fill:#4A4A4A;}
	.st4{fill:#E0C400;}
</style>
<g id="Слой_10" class="st0">
	<rect x="-139.27" y="-786.02" class="st1" width="2336.6" height="2336.6"/>
</g>
<g id="LOGO" class="st0">
	<g class="st1">
		<path class="st2" d="M48.68,324.03c0-29.36-0.41-109.82-0.41-117.44v-21.24c0-56.28,18.47-102.21,55.42-137.78
			c31.42-30.38,74.24-45.58,128.46-45.58c53.87,0,96.86,16.83,128.98,50.5s48.17,80.89,48.17,141.67v24.34H303.11v-20.2
			c0-30.38-6.05-53-18.13-67.85c-12.78-16.23-31.43-24.34-55.94-24.34c-21.41,0-38.85,6.73-52.32,20.2
			c-14.85,15.54-22.27,40.58-22.27,75.11c0,8.45,1,92.09,1,122.79L48.68,324.03z M413.3,433.82l0.14,118.78
			c0,36.61-4.49,69.07-13.47,97.38c-8.98,28.32-21.41,50.59-37.29,66.82c-14.16,14.85-33.33,26.68-57.49,35.48
			c-24.17,8.81-51.11,13.21-80.8,13.21c-35.22,0-65.35-6.05-90.39-18.13c-25.04-12.08-44.29-27.45-57.75-46.1
			c-22.79-30.38-34.19-72.17-34.19-125.35v-24.34h106.18v20.2c0,29.36,5.7,51.28,17.09,65.78c13.12,16.23,32.45,24.34,58.01,24.34
			c30.38,0,52.66-8.81,66.82-26.42c11.4-14.5,17.09-39.02,17.09-73.55l-0.04-122.8c0-1.67,0.02-3.45,0-5.08L413.3,433.82z"/>
		<path class="st2" d="M494.04,324.2c0-160.89,0-157.35,0-311.85h106.18V324.2H494.04z M600.23,433.82v321.31H494.04
			c0-70.17,0-217.65,0-321.31H600.23z M849.37,433.82v321.31H743.19V433.82H849.37z M743.19,324.2V12.35h106.18V324.2H743.19z"/>
		<path class="st2" d="M1051.69,433.82v220.3h211.85v101H945.51V433.82H1051.69z M945.51,324.2V12.35h314.93v101h-208.74V324.2
			L945.51,324.2z"/>
		<path class="st2" d="M1840.16,433.82v321.31h-106.18V433.82H1840.16z M1733.98,324.2V12.35h322.18v101h-215.99V324.2H1733.98z"/>
		<path class="st3" d="M1464.01,655.07l-136.24,101h330.98v-101H1464.01z M1471.46,729.08c-11.23,0-20.33-9.1-20.33-20.33
			c0-11.23,9.1-20.33,20.33-20.33s20.33,9.1,20.33,20.33C1491.79,719.98,1482.69,729.08,1471.46,729.08z"/>
		<g>
			<path class="st4" d="M1327.76,756.08V13.31h136.24v641.77"/>
			<rect x="1327.76" y="89.06" width="34.32" height="17.68"/>
			<rect x="1327.76" y="163.32" width="65.02" height="17.68"/>
			<rect x="1327.76" y="237.57" width="34.32" height="17.68"/>
			<rect x="1327.76" y="311.83" width="65.02" height="17.68"/>
			<rect x="1327.76" y="386.08" width="34.32" height="17.68"/>
			<rect x="1327.76" y="460.34" width="65.02" height="17.68"/>
			<rect x="1327.76" y="534.6" width="34.32" height="17.68"/>
			<rect x="1327.76" y="608.85" width="65.02" height="17.68"/>
		</g>
		<path class="st2" d="M1475.01,331.28v95.47h554.25v-95.47H1475.01z M2029.27,368.4l-463.22-24.75h463.22V368.4z"/>
		<polygon class="st2" points="0,379.01 971.09,379.01 0,403.76 0,426.75 1316.76,426.75 1316.76,331.28 0,331.28 		"/>
	</g>
</g>
<g id="_x2B__x2B__LOGO__x2B__x2B_">
	<g>
		<path class="st2" d="M48.68,324.03c0-29.36-0.41-109.82-0.41-117.44v-21.24c0-56.28,18.47-102.21,55.42-137.78
			c31.42-30.38,74.24-45.58,128.46-45.58c53.87,0,96.86,16.83,128.98,50.5s48.17,80.89,48.17,141.67v24.34H303.11v-20.2
			c0-30.38-6.05-53-18.13-67.85c-12.78-16.23-31.43-24.34-55.94-24.34c-21.41,0-38.85,6.73-52.32,20.2
			c-14.85,15.54-22.27,40.58-22.27,75.11c0,8.45,1,92.09,1,122.79L48.68,324.03z M413.3,433.82l0.14,118.78
			c0,36.61-4.49,69.07-13.47,97.38c-8.98,28.32-21.41,50.59-37.29,66.82c-14.16,14.85-33.33,26.68-57.49,35.48
			c-24.17,8.81-51.11,13.21-80.8,13.21c-35.22,0-65.35-6.05-90.39-18.13c-25.04-12.08-44.29-27.45-57.75-46.1
			c-22.79-30.38-34.19-72.17-34.19-125.35v-24.34h106.18v20.2c0,29.36,5.7,51.28,17.09,65.78c13.12,16.23,32.45,24.34,58.01,24.34
			c30.38,0,52.66-8.81,66.82-26.42c11.4-14.5,17.09-39.02,17.09-73.55l-0.04-122.8c0-1.67,0.02-3.45,0-5.08L413.3,433.82z"/>
		<path class="st2" d="M494.04,324.2c0-160.89,0-157.35,0-311.85h106.18V324.2H494.04z M600.23,433.82v321.31H494.04
			c0-70.17,0-217.65,0-321.31H600.23z M849.37,433.82v321.31H743.19V433.82H849.37z M743.19,324.2V12.35h106.18V324.2H743.19z"/>
		<path class="st2" d="M1051.69,433.82v220.3h211.85v101H945.51V433.82H1051.69z M945.51,324.2V12.35h314.93v101h-208.74V324.2
			L945.51,324.2z"/>
		<path class="st2" d="M1840.16,433.82v321.31h-106.18V433.82H1840.16z M1733.98,324.2V12.35h322.18v101h-215.99V324.2H1733.98z"/>
		<g>
			<path class="st4" d="M1327.76,756.08V13.31h136.24v606.53"/>
			<rect x="1327.76" y="66.06" width="34.32" height="17.68"/>
			<rect x="1327.76" y="140.32" width="65.02" height="17.68"/>
			<rect x="1327.76" y="214.57" width="34.32" height="17.68"/>
			<rect x="1327.76" y="288.83" width="65.02" height="17.68"/>
			<rect x="1327.76" y="363.08" width="34.32" height="17.68"/>
			<rect x="1327.76" y="437.34" width="65.02" height="17.68"/>
			<rect x="1327.76" y="511.6" width="34.32" height="17.68"/>
			<rect x="1327.76" y="585.85" width="65.02" height="17.68"/>
		</g>
		<polyline class="st2" points="2029.27,368.4 1566.05,343.65 2029.27,343.65 2029.27,342.66 2029.27,342.66 2029.27,342.66 
			2029.27,331.28 1475.01,331.28 1475.01,426.75 2029.27,426.75 		"/>
		<polygon class="st2" points="0,379.01 971.09,379.01 0,403.76 0,426.75 1316.76,426.75 1316.76,331.28 0,331.28 		"/>
	</g>
	<g id="Слой_5">
		<path class="st3" d="M1464.01,619.84l-136.24,136.24h330.98V619.84H1464.01z M1489.31,714.68c-14.76,0-26.72-11.96-26.72-26.72
			s11.96-26.72,26.72-26.72c14.76,0,26.72,11.96,26.72,26.72S1504.07,714.68,1489.31,714.68z"/>
	</g>
</g>
</svg>
