<?xml version="1.0" encoding="utf-8"?>
<!-- Generator: Adobe Illustrator 24.3.0, SVG Export Plug-In . SVG Version: 6.00 Build 0)  -->
<svg version="1.1" xmlns="http://www.w3.org/2000/svg" xmlns:xlink="http://www.w3.org/1999/xlink" x="0px" y="0px"
	 viewBox="0 0 1117.4 886.7" style="enable-background:new 0 0 1117.4 886.7;" xml:space="preserve">
<style type="text/css">
	.st0{display:none;}
	.st1{fill:#FFC700;}
</style>
<g id="Слой_1" class="st0">
	
		<image style="display:inline;overflow:visible;" width="4623" height="3659" xlink:href="IMG_6112.PNG"  transform="matrix(0.24 0 0 0.24 4.4894 4.3191)">
	</image>
</g>
<g id="Слой_2">
	<g>
		<path class="st1" d="M825.3,4.3L886,16.2c0,0,2.3,1.2,2.3,3.8c0,2.6-1.8,3.3-1.8,3.3l-59.7,12.1l2.4,0.1h241.7
			c0,0,43.2,3.7,43.2,52.8v750.6c0,0-4.7,43.6-49.3,43.6s-1017.5,0-1017.5,0S4.5,876,4.5,831.1c0-44.9,0-752,0-752S7.7,35.5,56,35.5
			c48.3,0,182.1,0,182.1,0s-11.1-5-11.1-15.1c0-10.1,7.7-16.1,12.5-16.1C244.3,4.3,825.3,4.3,825.3,4.3 M825.6,1.3h-0.3H239.5
			C233,1.3,224,8.6,224,20.4c0,5.2,2.4,9.2,5,12.1H56c-26.3,0-39.8,12.6-46.4,23.2c-7.1,11.4-8,22.7-8.1,23.2l0,0.1v0.1v752
			c0,24.5,12.3,38,22.6,45c11.1,7.5,22.1,9.3,22.6,9.3l0.2,0h0.2h1017.5c24.4,0,37.4-12.6,43.9-23.2c7-11.3,8.3-22.6,8.4-23l0-0.2
			v-0.2V88.3c0-26.7-12.5-40.4-23-47.3c-11.3-7.4-22.5-8.4-23-8.5l-0.1,0h-0.1H856.3l30.8-6.2l0.3-0.1l0.3-0.1
			c1.3-0.6,3.6-2.5,3.6-6.1c0-3.4-2.4-5.7-3.9-6.4l-0.4-0.2l-0.4-0.1L825.9,1.4L825.6,1.3L825.6,1.3z"/>
	</g>
</g>
</svg>
