<?xml version="1.0" encoding="utf-8"?>
<!-- Generator: Adobe Illustrator 24.3.0, SVG Export Plug-In . SVG Version: 6.00 Build 0)  -->
<svg version="1.1" xmlns="http://www.w3.org/2000/svg" xmlns:xlink="http://www.w3.org/1999/xlink" x="0px" y="0px"
	 viewBox="0 0 595.6 867.1" style="enable-background:new 0 0 595.6 867.1;" xml:space="preserve">
<style type="text/css">
	.st0{display:none;}
	.st1{display:inline;}
	.st2{fill:#FFC700;}
	.st3{fill:none;stroke:#FFC700;stroke-width:3;stroke-miterlimit:10;}
</style>
<g id="Слой_1" class="st0">
	<g id="Слой_1_1_">
		
			<image style="display:inline;overflow:visible;enable-background:new    ;" width="2412" height="3587" xlink:href="ИТОГ-2.png"  transform="matrix(0.24 0 0 0.24 -6.6064 -6.6382)">
		</image>
	</g>
	<g id="Слой_1__x28_копия_x29_" class="st1">
		
			<image style="overflow:visible;enable-background:new    ;" width="2412" height="3587" xlink:href="ИТОГ-2.png"  transform="matrix(0.24 0 0 0.24 -6.6064 -6.6382)">
		</image>
	</g>
	<g id="Слой_3" class="st1">
		<g>
			<path class="st2" d="M320.8-5.8c3.8,0,23.5,0.9,23.5,19.1V32c0,0-0.7,7.1,6.6,7.1c7.2,0,203.7,0,203.7,0s0.7-0.1,1.9-0.1
				c4.6,0,15.8,1.6,15.8,16.7c0,19.1,0,784.4,0,784.4s0.5,14.2-17,14.2s-548.5,0-548.5,0S-6.6,853-6.6,839.4S-6.6,57-6.6,57
				s-1.2-17.8,19.3-17.8c22.7,0,201.6-0.2,201.6-0.2l0,0c0.1,0,6-0.1,5.2-11.2c-0.5-6,0-15.5,0-15.5s-0.8-18.2,23.7-18.2
				c24.5,0,76.9,0,76.9,0S320.4-5.8,320.8-5.8 M320.8-8.8c-0.3,0-0.6,0-0.7,0h-76.9c-9.4,0-16.5,2.5-21.2,7.4
				c-5.4,5.6-5.5,12.5-5.5,13.7c-0.1,1.1-0.4,9.9,0,15.7c0.5,6-1.3,7.8-2.3,7.9c-4.8,0-179.3,0.2-201.6,0.2
				c-7.4,0-13.2,2.1-17.1,6.4C-9.9,48.3-9.7,55.9-9.7,57v782.3c0,13,10.6,17.4,16.1,17.9h0.1h0.1h548.5c6.6,0,11.8-1.9,15.3-5.5
				c4.6-4.8,4.6-10.9,4.6-11.7V55.6c0-18.3-14.4-19.7-18.8-19.7c-1,0-1.8,0.1-2.1,0.1H350.9c-1.3,0-2.2-0.3-2.7-0.9
				c-0.9-1-0.8-2.9-0.8-2.9v-0.1V32V13.3C347.3-3.1,333-8.8,320.8-8.8L320.8-8.8z"/>
		</g>
	</g>
</g>
<g id="Слой_2" class="st0">
	
		<image style="display:inline;overflow:visible;" width="2457" height="3587" xlink:href="IMG_6308.PNG"  transform="matrix(0.24 0 0 0.24 3.1174 3.0408)">
	</image>
</g>
<g id="право" class="st0">
	<g class="st1">
		<path class="st2" d="M342.7,3.3c0.2,0,0.4,0,0.4,0h197.5C558.4,5.6,560,20.7,560,20.7l3.8,28.4c0.9-0.1,1.8-0.1,2.7-0.1
			c23.8,0,26,21.3,26,21.3v772.5c-3.6,20.7-23.8,21-23.8,21H27c-22.6-2-23.9-22.7-23.9-22.7V71.8c3.5-21.7,23.1-22.9,23.1-22.9H298
			c0,0,17.6-23.7,25.9-35C331.2,3.9,340.7,3.3,342.7,3.3 M342.7,0.3c-2.1,0-13.1,0.6-21.3,11.9c-7.1,9.7-21.2,28.8-24.9,33.7H26.2
			h-0.1l-0.1,0c-0.2,0-5.7,0.4-11.5,3.7C9,52.7,2.1,58.9,0.2,71.3l0,0.2v0.2v769.4v0.1l0,0.1c0,0.2,0.4,6,3.9,11.9
			c3.2,5.6,9.8,12.5,22.7,13.6l0.1,0H27h541.7h0l0,0c0.2,0,5.8-0.1,11.8-3.1c5.6-2.7,12.8-8.5,14.9-20.5l0-0.3v-0.3V70.3v-0.2l0-0.2
			c0-0.2-2.8-24-29-24c0,0,0,0-0.1,0L563,20.4c-0.7-6.1-6.2-18-22.1-20l-0.2,0h-0.2H343.1C343,0.3,342.9,0.3,342.7,0.3L342.7,0.3z"
			/>
	</g>
</g>
<g id="Слой_4" class="st0">
	
		<image style="display:inline;overflow:visible;" width="2457" height="3587" xlink:href="IMG_6309.PNG"  transform="matrix(0.24 0 0 0.24 3.1174 3)">
	</image>
</g>
<g id="лево">
	<path class="st3" d="M26.3,20.7c0,0,1.7-15.1,19.5-17.4h197.8c0,0,11-0.7,19.2,10.6c8.2,11.3,25.9,35,25.9,35h280.7
		c0,0,19.6,1.2,23.1,22.9v769.4c0,0-1.4,20.8-23.9,22.7H26.9c0,0-20.2-0.4-23.8-21l0-772.5c0,0-0.3-15.6,19.3-21.3L26.3,20.7z"/>
</g>
</svg>
